<svg version="1.1" id="레이어_1" xmlns="http://www.w3.org/2000/svg" x="0" y="0" viewBox="0 0 215 215" xml:space="preserve"><style>.st1{fill:none;stroke:#000;stroke-miterlimit:10}.st2{opacity:.2}</style><path class="st1" d="M17 125l-2-77c0-3 2-4 4-4h171c2 0 4 1 4 4l-2 100h-8"/><path class="st1" d="M34 159c-3-1-8 3-11 2s-5 3-10-1-1-5 0-5v3c-1 1-3-1-3-3l2-4c1-19 10-20 10-20 3-2 3-10 4-13 2-2 7-1 9 4s1 7 1 7M39 126s0 2 11-4c14-8 18-3 32-8 10-3 24-16 45-15 30 1 61 30 56 54s-52 12-84 14c-14 1-19 0-19-2 0-3 10-6 24-7 25-1 41 6 55-4"/><path class="st1" d="M77 164s-29 1-31-1c-3-2-4-1-6-1s-3-5-2-6v1 3c0 1 1 2-1 1-1-1-4-3-2-6 3-4 8-2 15-1 10 1 22 1 33-7 9-12 16-17 28-17M10 159s-9 3-4 8h3M7 163c0 4 4 4 8 1M96 119s-13 13-12 24"/><path class="st1" d="M192 148l20 19v5h-3H4M12 168h199"/><path class="st2" d="M155 169c-9-2-10 2-12-4-2-5-2-8-31-6-13 0-18-9-10-21 0 0 9-18 24-27 16-10 33-6 40 10 10 25 15 30 14 38-1 7-10 0-15-1-9-2 0 13-10 11zM33 139c-4 3-5 4-3-2 1-4-5-1-12 1s19-19 19-19c4-4 5 2 4 6-2 4 5 0 5 3l-6 4c-3 1-5 5-7 7z"/><path class="st2" d="M74 109c10-10 46 10 29 23-17 12-44 35-44 9 1-26 5-22 15-32z"/><path class="st1" d="M23 50l1 35s31-2 37 0V50H23z"/><g><path d="M66 50h117c7 1 6 7 6 12l-1 26a8880 8880 0 010 52l1-44V74l1-20c0-4-3-4-6-5H66v1z"/></g><g><path d="M35 73l4-1 2 1 9-1v-1l-5 1h-3l-3-1-4 2c-1 0 0 1 0 0z"/></g><g><path d="M33 76l12-1v-1l-12 1v1z"/></g><g><path d="M47 75l4-1v-1l-4 1v1z"/></g></svg>